<?xml version="1.0" encoding="utf-8"?>
<!-- Generator: Adobe Illustrator 23.0.1, SVG Export Plug-In . SVG Version: 6.00 Build 0)  -->
<svg version="1.1" id="Layer_1" xmlns="http://www.w3.org/2000/svg" xmlns:xlink="http://www.w3.org/1999/xlink" x="0px" y="0px"
	 viewBox="0 0 14 30" style="enable-background:new 0 0 14 30;" xml:space="preserve">
<style type="text/css">
	.st0{fill:#3D58A6;}
</style>
<g id="_x23_020201ff_5_">
	<path class="st0" d="M4.61,1.55c1.17-1.11,2.83-1.49,4.4-1.54C10.68-0.01,12.34,0,14,0C14,1.75,14,3.51,14,5.26
		c-1.07,0-2.15,0-3.22,0C10.1,5.21,9.4,5.73,9.28,6.4C9.26,7.58,9.27,8.75,9.27,9.92c1.57,0.01,3.15,0,4.72,0
		c-0.12,1.7-0.33,3.38-0.57,5.06c-1.39,0.01-2.78,0-4.17,0.01c-0.01,5,0.01,10-0.01,15C7.17,30,5.11,29.99,3.04,30
		c-0.04-5,0-10-0.02-15C2.01,14.98,1.01,15,0,14.99c0-1.68,0-3.36,0-5.04c1.01-0.01,2.01,0,3.02-0.01c0.03-1.63-0.03-3.27,0.03-4.9
		C3.15,3.74,3.65,2.44,4.61,1.55z"/>
</g>
</svg>
