<?xml version="1.0" encoding="utf-8"?>
<!-- Generator: Adobe Illustrator 23.0.1, SVG Export Plug-In . SVG Version: 6.00 Build 0)  -->
<svg version="1.1" id="Layer_1" xmlns="http://www.w3.org/2000/svg" xmlns:xlink="http://www.w3.org/1999/xlink" x="0px" y="0px"
	 viewBox="0 0 100.87 130.5" style="enable-background:new 0 0 100.87 130.5;" xml:space="preserve">
<style type="text/css">
	.st0{fill:#3D58A6;}
</style>
<g>
	<path class="st0" d="M37.44,129.05c0.73,0.92,1.84,1.46,3.02,1.46h48.18c1.57,0,2.99-0.95,3.58-2.4c0.07-0.18,1.01-2.63,1.36-3.61
		c1-2.79,2.01-5.83,2.94-9.02c1.5-5.1,2.68-10.09,3.44-14.81c1.63-10.2,1.18-18.36-2.23-23.96c-3.55-5.82-9.88-10.01-18.14-12.97
		c-4.29-1.54-8.85-2.66-13.41-3.42c-1.59-0.27-2.58-0.38-2.58-0.38V24.93c0-6.35-5.19-11.5-11.56-11.5H50.1
		c-6.38,0-11.56,5.16-11.56,11.51l0.01,60.64L25.71,74.4c-8.24-7.18-19.71-5.27-25.14,4.18c-0.85,1.48-0.72,3.17,0.26,4.4
		L37.44,129.05z M9.87,79.37c3.15-2.4,7.29-2.21,10.75,0.8l19.22,16.75c2.49,2.17,6.39,0.41,6.39-2.89V24.95
		c0-2.11,1.73-3.84,3.85-3.84h1.93c2.12,0,3.85,1.72,3.85,3.82v38.4c0,2.01,1.56,3.68,3.57,3.83c0.24,0.02,0.73,0.06,1.44,0.14
		c1.2,0.14,2.54,0.32,3.99,0.57c4.13,0.69,8.26,1.7,12.08,3.07c6.76,2.43,11.71,5.7,14.17,9.73c2.21,3.63,2.58,10.22,1.21,18.77
		c-0.7,4.37-1.81,9.05-3.22,13.86c-0.89,3.04-1.85,5.93-2.8,8.59c-0.33,0.93-0.31,0.93-0.31,0.93H42.39L8.68,80.5
		C8.68,80.5,9.23,79.87,9.87,79.37z"/>
	<path class="st0" d="M76.56,20.66C74.12,8.87,63.64,0,51.07,0C36.7,0,25.06,11.6,25.06,25.91c0,9.6,5.29,18.27,13.6,22.77
		c1.87,1.01,4.21,0.33,5.23-1.54c1.02-1.86,0.33-4.19-1.54-5.21c-5.85-3.17-9.57-9.27-9.57-16.03c0-10.07,8.2-18.23,18.31-18.23
		s18.31,8.16,18.31,18.23c0,6.68-3.64,12.72-9.39,15.93c-1.86,1.03-2.52,3.37-1.48,5.22c1.04,1.85,3.39,2.51,5.25,1.48
		c7.46-4.16,12.43-11.69,13.22-20.2H88.3v3.85c0,1.04,0.7,1.41,1.57,0.79l10.34-7.36c0.89-0.63,0.87-1.62,0-2.24l-10.34-7.36
		c-0.89-0.63-1.57-0.26-1.57,0.79v3.85H76.56L76.56,20.66z"/>
</g>
</svg>
