<?xml version="1.0" encoding="utf-8"?>
<!-- Generator: Adobe Illustrator 23.0.1, SVG Export Plug-In . SVG Version: 6.00 Build 0)  -->
<svg version="1.1" id="Layer_1" xmlns="http://www.w3.org/2000/svg" xmlns:xlink="http://www.w3.org/1999/xlink" x="0px" y="0px"
	 viewBox="0 0 47.23 30" style="enable-background:new 0 0 47.23 30;" xml:space="preserve">
<style type="text/css">
	.st0{fill:#3D58A6;}
</style>
<g>
	<g>
		<path class="st0" d="M15,12.03v5.94c0,0,5.76-0.01,8.11-0.01c-1.27,3.85-3.25,5.95-8.11,5.95c-4.92,0-8.76-3.99-8.76-8.91
			c0-4.92,3.84-8.91,8.76-8.91c2.6,0,4.28,0.91,5.82,2.19c1.23-1.23,1.13-1.41,4.27-4.37C22.43,1.48,18.89,0,15,0
			C6.72,0,0,6.72,0,15s6.72,15,15,15c12.38,0,15.41-10.78,14.41-17.97C26.47,12.03,15,12.03,15,12.03z M42.03,12.33v-5.2h-3.71v5.2
			h-5.35v3.71h5.35v5.35h3.71v-5.35h5.2v-3.71H42.03z"/>
	</g>
</g>
</svg>
