<?xml version="1.0" encoding="utf-8"?>
<!-- Generator: Adobe Illustrator 23.0.1, SVG Export Plug-In . SVG Version: 6.00 Build 0)  -->
<svg version="1.1" id="Layer_1" xmlns="http://www.w3.org/2000/svg" xmlns:xlink="http://www.w3.org/1999/xlink" x="0px" y="0px"
	 viewBox="0 0 90 127" style="enable-background:new 0 0 90 127;" xml:space="preserve">
<style type="text/css">
	.st0{fill:#3D58A6;}
</style>
<path class="st0" d="M89.43,82.12c-0.83-0.71-2.08-0.6-2.79,0.23L72.95,98.42l-8.75-6.93c-0.85-0.68-2.1-0.54-2.78,0.31
	c-0.68,0.85-0.54,2.09,0.32,2.77l10.25,8.12c0.36,0.29,0.8,0.43,1.23,0.43c0.56,0,1.12-0.24,1.51-0.69l14.93-17.52
	C90.36,84.06,90.26,82.82,89.43,82.12z M75.56,115.3c-1.09,0-1.98,0.88-1.98,1.97c0,3.26-2.66,5.91-5.93,5.91H15.2
	c-3.27,0-5.93-2.65-5.93-5.91V9.45c0-3.26,2.66-5.91,5.93-5.91h52.45c3.27,0,5.93,2.65,5.93,5.91V69.7c0,1.09,0.89,1.97,1.98,1.97
	c1.09,0,1.98-0.88,1.98-1.97V36.09c1.51-0.3,2.64-1.63,2.64-3.22v-8.61c0-1.59-1.13-2.91-2.64-3.22V9.45c0-5.43-4.43-9.84-9.88-9.84
	H15.2c-5.45,0-9.88,4.41-9.88,9.84v107.83c0,5.43,4.43,9.84,9.88,9.84h52.45c5.02,0,9.17-3.74,9.8-8.57
	c0.05-0.18,0.08-0.37,0.08-0.56v-0.71C77.54,116.19,76.65,115.3,75.56,115.3z M51.31,9.63c1.09,0,1.98-0.88,1.98-1.97
	S52.4,5.7,51.31,5.7H31.54c-1.09,0-1.98,0.88-1.98,1.97s0.89,1.97,1.98,1.97H51.31z M35.93,116.37c0,3.02,2.47,5.47,5.5,5.47
	c3.03,0,5.5-2.46,5.5-5.47s-2.47-5.47-5.5-5.47C38.4,110.9,35.93,113.36,35.93,116.37z M42.97,116.37c0,0.85-0.69,1.54-1.54,1.54
	s-1.54-0.69-1.54-1.54c0-0.85,0.69-1.53,1.54-1.53S42.97,115.53,42.97,116.37z M65.05,71.55c1.2,0,2.18-0.97,2.18-2.17V25.31
	c0-3.67-3.54-6.88-7.57-6.88H23.92c-4.17,0-7.57,3.38-7.57,7.54v73.48c0,4.16,3.39,7.54,7.57,7.54H55.1c1.2,0,2.18-0.97,2.18-2.17
	s-0.98-2.17-2.18-2.17H23.92c-1.77,0-3.21-1.43-3.21-3.19V25.96c0-1.76,1.44-3.19,3.21-3.19h35.74c1.86,0,3.21,1.52,3.21,2.54v44.07
	C62.87,70.57,63.84,71.55,65.05,71.55z"/>
</svg>
