<?xml version="1.0" encoding="utf-8"?>
<!-- Generator: Adobe Illustrator 23.0.1, SVG Export Plug-In . SVG Version: 6.00 Build 0)  -->
<svg version="1.1" id="Layer_1" xmlns="http://www.w3.org/2000/svg" xmlns:xlink="http://www.w3.org/1999/xlink" x="0px" y="0px"
	 viewBox="0 0 40 39.76" style="enable-background:new 0 0 40 39.76;" xml:space="preserve">
<style type="text/css">
	.st0{fill:#EE4036;}
</style>
<path class="st0" d="M40,36.38l-9.58-9.58c0.76-1.04,1.42-2.16,1.94-3.4c3.62-8.57-0.39-18.46-8.96-22.08C21.33,0.45,19.1,0,16.84,0
	l0,0C7.54,0.01,0,7.55,0,16.86c0,6.77,4.05,12.88,10.28,15.51c5.78,2.44,12.15,1.4,16.8-2.15l9.54,9.54L40,36.38z M4.78,16.85
	c0-6.67,5.4-12.07,12.07-12.07c6.67,0,12.07,5.4,12.07,12.07s-5.4,12.07-12.07,12.07C10.18,28.92,4.78,23.52,4.78,16.85z"/>
</svg>
