<?xml version="1.0" encoding="utf-8"?>
<!-- Generator: Adobe Illustrator 23.0.1, SVG Export Plug-In . SVG Version: 6.00 Build 0)  -->
<svg version="1.1" id="Layer_1" xmlns="http://www.w3.org/2000/svg" xmlns:xlink="http://www.w3.org/1999/xlink" x="0px" y="0px"
	 viewBox="0 0 24.81 30" style="enable-background:new 0 0 24.81 30;" xml:space="preserve">
<style type="text/css">
	.st0{fill:#3D58A6;}
</style>
<path class="st0" d="M15.81,24.36v-3.54c0-0.75-0.22-1.13-0.65-1.13c-0.26,0-0.5,0.12-0.74,0.36v5.05c0.24,0.24,0.49,0.36,0.74,0.36
	C15.59,25.47,15.81,25.1,15.81,24.36L15.81,24.36z M19.96,21.61h1.49v-0.77c0-0.77-0.25-1.15-0.74-1.15s-0.74,0.38-0.74,1.15V21.61z
	 M7.08,15.61v1.58h-1.8v9.54H3.61v-9.54H1.85v-1.58H7.08L7.08,15.61z M11.62,18.45v8.28h-1.51v-0.9c-0.59,0.68-1.16,1.02-1.71,1.02
	c-0.5,0-0.81-0.21-0.95-0.63c-0.09-0.24-0.14-0.65-0.14-1.22v-6.54H8.8v6.09c0,0.36,0.01,0.56,0.02,0.59
	c0.02,0.23,0.13,0.34,0.34,0.34c0.3,0,0.62-0.23,0.95-0.7v-6.32L11.62,18.45L11.62,18.45z M17.3,20.95v3.29
	c0,0.78-0.05,1.33-0.16,1.65c-0.18,0.63-0.58,0.95-1.2,0.95c-0.53,0-1.04-0.31-1.53-0.92v0.81H12.9V15.61h1.51v3.63
	c0.48-0.6,0.99-0.9,1.53-0.9c0.62,0,1.02,0.32,1.2,0.95C17.25,19.6,17.3,20.16,17.3,20.95z M22.96,23.86v0.2
	c0,0.44-0.02,0.76-0.05,0.97c-0.05,0.33-0.16,0.63-0.34,0.9c-0.41,0.6-1.01,0.9-1.8,0.9c-0.78,0-1.39-0.29-1.83-0.86
	c-0.32-0.41-0.47-1.05-0.47-1.94v-2.91c0-0.89,0.15-1.53,0.45-1.94c0.44-0.57,1.04-0.86,1.8-0.86s1.35,0.29,1.76,0.86
	c0.32,0.42,0.47,1.07,0.47,1.94v1.71h-3v1.47c0,0.77,0.26,1.15,0.77,1.15c0.36,0,0.59-0.2,0.68-0.59c0-0.02,0-0.07,0.01-0.16
	c0.01-0.09,0.01-0.21,0.01-0.37v-0.48L22.96,23.86L22.96,23.86z M12.79,5.28V8.8c0,0.77-0.24,1.15-0.72,1.15
	c-0.48,0-0.72-0.38-0.72-1.15V5.28c0-0.78,0.24-1.17,0.72-1.17C12.55,4.11,12.79,4.5,12.79,5.28z M24.81,21.36
	c0-2.66-0.14-4.62-0.43-5.86c-0.15-0.66-0.47-1.21-0.97-1.66c-0.5-0.44-1.07-0.7-1.71-0.78c-2.05-0.23-5.14-0.34-9.29-0.34
	c-4.14,0-7.23,0.11-9.27,0.34c-0.66,0.08-1.24,0.33-1.73,0.78c-0.49,0.44-0.81,1-0.96,1.66C0.15,16.8,0,18.76,0,21.36
	c0,2.65,0.15,4.6,0.45,5.86c0.15,0.65,0.47,1.2,0.96,1.65c0.49,0.45,1.06,0.71,1.7,0.79C5.17,29.89,8.27,30,12.41,30
	c4.14,0,7.23-0.11,9.29-0.34c0.65-0.08,1.21-0.34,1.7-0.79c0.49-0.45,0.81-1,0.96-1.65C24.66,25.96,24.81,24.01,24.81,21.36z
	 M7.78,6.68L9.81,0H8.12L6.97,4.4L5.77,0H4.02l0.54,1.56c0,0,0.17,0.52,0.52,1.56C5.6,4.66,5.95,5.85,6.11,6.68v4.53h1.67L7.78,6.68
	L7.78,6.68z M14.3,8.5V5.57c0-0.87-0.16-1.53-0.47-1.96c-0.44-0.57-1.02-0.86-1.76-0.86c-0.77,0-1.35,0.29-1.76,0.86
	C9.99,4.05,9.83,4.7,9.83,5.57V8.5c0,0.87,0.16,1.53,0.47,1.96c0.41,0.57,0.99,0.86,1.76,0.86c0.74,0,1.32-0.29,1.76-0.86
	C14.14,10.06,14.3,9.41,14.3,8.5z M18.38,11.21h1.51V2.86h-1.51v6.38c-0.33,0.47-0.65,0.7-0.95,0.7c-0.23,0-0.35-0.12-0.36-0.36
	C17.06,9.56,17.05,9.36,17.05,9V2.86h-1.51v6.61c0,0.56,0.05,0.97,0.14,1.24c0.17,0.41,0.49,0.61,0.97,0.61
	c0.54,0,1.12-0.34,1.74-1.02L18.38,11.21L18.38,11.21z"/>
</svg>
